<?xml version="1.0" standalone="no"?>
<!DOCTYPE svg PUBLIC "-//W3C//DTD SVG 1.1//EN" "http://www.w3.org/Graphics/SVG/1.1/DTD/svg11.dtd">
<svg xmlns="http://www.w3.org/2000/svg"><metadata>This SVG WebFont was generated by YouWorkForThem.
Copyright (c) 2009 by  2009 Designed by Svetoslav Simov  Fontfabric, Inc. All rights reserved.</metadata><defs><font horiz-adv-x="1034" id="ywftsvg"><font-face ascent="1548" bbox="-66 -446 1855 1866" cap-height="1448" descent="-500" font-family="" font-stretch="normal" font-weight="300" panose-1="2 11 4 2 2 2 3 2 2 4" underline-position="0" underline-thickness="0" unicode-range="U+0020-FB02" units-per-em="2048" x-height="1059"/><missing-glyph d="M80 0v1450h983v-1450h-983zM571 772l387 617h-774zM608 717l393 -611v1237zM184 61h774l-387 601zM141 1343v-1237l394 611z" horiz-adv-x="1153"/><glyph d="M80 0v1450h983v-1450h-983zM571 772l387 617h-774zM608 717l393 -611v1237zM184 61h774l-387 601zM141 1343v-1237l394 611z" glyph-name=".notdef" horiz-adv-x="1153"/><glyph glyph-name="glyph1" horiz-adv-x="0"/><glyph glyph-name="glyph2" horiz-adv-x="682"/><glyph glyph-name="space" horiz-adv-x="614" unicode=" "/><glyph d="M289 1452v-1184h-80v1184h80zM172 69.5q0 32.5 22.5 55t55.5 22.5t55.5 -22.5t22.5 -55t-22.5 -55t-55.5 -22.5t-55.5 22.5t-22.5 55z" glyph-name="exclam" horiz-adv-x="552" unicode="!"/><glyph d="M145 1061v389h82l-34 -389h-48zM334 1061v389h80l-33 -389h-47z" glyph-name="quotedbl" horiz-adv-x="544" unicode="&quot;"/><glyph d="M467 475l-137 -475h-78l139 475h-323l14 70h332l108 370h-372l16 72h379l135 463h80l-137 -463h378l136 463h82l-140 -463h332l-20 -72h-336l-107 -370h377l-18 -70h-383q-25 -93 -138 -475h-77l139 475h-381zM870 545l109 370h-379l-108 -370h378z" glyph-name="numbersign" horiz-adv-x="1464" unicode="#"/><glyph d="M284.5 1297.5q-104.5 -74.5 -112.5 -204.5t86 -192.5t283 -103.5v587q-152 -12 -256.5 -86.5zM600 1384v-598q109 -18 180.5 -40.5t187 -90t103.5 -293.5q-14 -158 -149.5 -257t-321.5 -111v-207h-59v207q-160 12 -284 75.5t-179 178.5l74 31q45 -88 151.5 -142.5 t237.5 -64.5v651q-282 60 -368 149t-80 238q7 150 135 244t313 108v205h59v-205q332 -6 442 -227l-71 -29q-88 162 -348 178h-23zM625 707l-25 4v-639q156 12 267.5 90t123.5 208t-56.5 209t-309.5 128z" glyph-name="dollar" horiz-adv-x="1165" unicode="$"/><glyph d="M649 1078q0 -173 -78.5 -272t-208.5 -99t-204 96t-74 273t78 273.5t208 96.5t204.5 -97.5t74.5 -270.5zM1368 372q0 -171 -79 -270.5t-209 -99.5t-202.5 95.5t-72.5 274.5t76.5 273t206.5 94t205 -98t75 -269zM1090 78q202 0 202 294t-207 294q-201 0 -200 -293 q0 -156 49 -225.5t156 -69.5zM1198 1544l66 -43l-1020 -1618l-70 41zM367 784q204 0 204 293t-206 293q-201 0 -201 -291q0 -156 49 -225.5t154 -69.5z" glyph-name="percent" horiz-adv-x="1488" unicode="%"/><glyph d="M520 12q-176 0 -295 106.5t-119 280.5q0 139 85 230.5t245 185.5q-59 70 -88 109t-59.5 103.5t-30.5 119.5q0 137 99.5 222t229.5 85t220 -82t90 -210t-86 -205t-221 -146l-33 -18l395 -402l119 201l62 -31l-132 -215l238 -272h-96l-180 202q-98 -131 -202 -197.5 t-241 -66.5zM186 403q0 -147 93.5 -233t257.5 -86q202 0 372 244l-422 436q-227 -133 -264 -214t-37 -147zM588 1380q-102 0 -176 -65.5t-74 -163.5q0 -51 32.5 -114.5t58.5 -95.5t79 -93q6 4 40 20.5t44 22.5t41 22.5t42 25.5t36.5 27.5t66.5 66.5t41 136t-64.5 149.5 t-166.5 61.5z" glyph-name="ampersand" horiz-adv-x="1251" unicode="&amp;"/><glyph d="M143 1059v391h80l-20 -391h-60z" glyph-name="quotesingle" horiz-adv-x="380" unicode="'"/><glyph d="M410 1581l61 -45q-248 -362 -249 -835.5t259 -843.5q-6 -4 -63 -39q-279 389 -278.5 881.5t270.5 881.5z" glyph-name="parenleft" horiz-adv-x="532" unicode="("/><glyph d="M109 -246l-66 43q258 401 251 864t-255 855q6 4 63 38q270 -389 275.5 -895t-268.5 -905z" glyph-name="parenright" horiz-adv-x="520" unicode=")"/><glyph d="M422 1047l-189 -263q-10 6 -25 19.5t-22 17.5l197 264l-313 97q8 31 18 57l309 -100l-4 313h64l-4 -313q41 12 301 96l18 -59l-305 -95l199 -260q-18 -14 -48 -39z" glyph-name="asterisk" horiz-adv-x="847" unicode="*"/><glyph d="M111 659v78h473v461h75v-461h455v-78h-455v-464h-75v464h-473z" glyph-name="plus" horiz-adv-x="1214" unicode="+"/><glyph d="M109 -262l122 377h99q-25 -76 -74 -190.5t-74 -186.5h-73z" glyph-name="comma" horiz-adv-x="499" unicode=","/><glyph d="M78 575v78h579v-78h-579z" glyph-name="hyphen" horiz-adv-x="735" unicode="-"/><glyph d="M141 71.5q0 32.5 22.5 55.5t55.5 23t55.5 -23t22.5 -55.5t-22.5 -55t-55.5 -22.5t-55.5 22.5t-22.5 55z" glyph-name="period" horiz-adv-x="448" unicode="."/><glyph d="M117 -49l-72 22l608 1526l68 -22z" glyph-name="slash" horiz-adv-x="757" unicode="/"/><glyph d="M195 1063v-688q0 -113 93.5 -217.5t329.5 -104.5t329 104.5t93 217.5v688q0 164 -127 242.5t-296 78.5t-295.5 -78.5t-126.5 -242.5zM618.5 -27q-124.5 0 -236.5 41t-189.5 135.5t-77.5 225.5v688q0 193 152.5 297t350.5 104t350 -104.5t152 -296.5v-688 q0 -129 -77.5 -224.5t-188.5 -136.5t-235.5 -41z" glyph-name="zero" horiz-adv-x="1230" unicode="0"/><glyph d="M451 1452v-1452h-78v1362l-269 -283q-14 10 -30.5 25.5t-24.5 21.5l307 326h95z" glyph-name="one" horiz-adv-x="641" unicode="1"/><glyph d="M1008 1064q0 -177 -179 -351l-634 -633h819v-80h-916q-26 62 -28 66l704 700q156 152 156 291t-105 227t-255 93q-294 10 -402 -210l-70 33q61 137 172 195.5t283 60.5q201 -2 328 -108.5t127 -283.5z" glyph-name="two" horiz-adv-x="1116" unicode="2"/><glyph d="M568 59q154 0 279.5 87t125.5 255t-100.5 261.5t-280.5 91.5h-100v69h100q143 0 229 69t86 209t-108.5 215t-238.5 75q-263 0 -370 -164l-63 37q53 98 167 149t274 51t287.5 -93t127.5 -271q0 -227 -182 -307q252 -90 252 -404q-2 -131 -111.5 -270t-394.5 -139 q-160 0 -286.5 59t-194.5 180l73 35q51 -94 163 -144.5t266 -50.5z" glyph-name="three" horiz-adv-x="1155" unicode="3"/><glyph d="M928 1450v-981h121v-70h-121v-399h-80v399h-780l-43 70l798 981h105zM115 469h735l2 899z" glyph-name="four" horiz-adv-x="1101" unicode="4"/><glyph d="M141 1430h856v-80h-776v-482q333 136 517 57t258.5 -180.5t76.5 -236.5v-80q-2 -201 -154.5 -320.5t-355.5 -119.5q-332 0 -465 233l74 35q51 -90 157.5 -138t233.5 -48q172 0 301 97t129 261v78q0 164 -121.5 259t-315.5 95t-376 -90l-39 -4v664z" glyph-name="five" horiz-adv-x="1185" unicode="5"/><glyph d="M647 1382q-180 0 -309 -85t-129 -240v-361q137 199 438 199q209 -2 358.5 -107.5t149.5 -293.5v-103q0 -188 -149.5 -294.5t-358.5 -107.5t-362.5 105.5t-155.5 296.5v668q0 190 153.5 296.5t364.5 104.5q154 0 279 -57t186 -168l-72 -37q-51 88 -159.5 136t-233.5 48z M1075 393v99q0 154 -126 239.5t-304 85.5t-307 -85t-129 -240v-99q0 -156 129 -240.5t307 -84.5t304 85.5t126 239.5z" glyph-name="six" horiz-adv-x="1265" unicode="6"/><glyph d="M74 1374v76h880l33 -68l-768 -1382h-90l762 1374h-817z" glyph-name="seven" horiz-adv-x="1005" unicode="7"/><glyph d="M610 43q233 0 328.5 119t95.5 231q0 352 -424 352h-39q-424 0 -424 -352q0 -113 96 -231.5t328 -118.5h39zM610 -33h-39q-201 0 -350 114t-151 310q0 145 71.5 246.5t206.5 142.5q-104 35 -157.5 123t-53.5 197q2 174 130 271t304 97h39q176 0 305 -97t129 -271 q0 -100 -48 -187.5t-152 -124.5q133 -47 201.5 -150t68.5 -247q-4 -197 -153.5 -310.5t-350.5 -113.5zM610 1395h-39q-147 0 -252.5 -77t-105.5 -218q0 -281 358 -281h39q358 0 359 281q0 141 -106 218t-253 77z" glyph-name="eight" horiz-adv-x="1185" unicode="8"/><glyph d="M600 57q180 0 309 85t129 241v356q-139 -184 -438 -184q-209 2 -358.5 107.5t-149.5 293.5v111q0 188 149.5 294.5t358.5 107.5t362.5 -105.5t155.5 -296.5v-686q0 -190 -153.5 -297t-364.5 -104q-154 0 -279 57t-186 168l74 37q51 -88 158.5 -136.5t232.5 -48.5z M172 1065v-107q0 -154 126 -239.5t304 -85.5t307 85t129 240v107q0 156 -129 241t-307 85t-304 -86t-126 -240z" glyph-name="nine" horiz-adv-x="1247" unicode="9"/><glyph d="M164 891q0 33 22.5 55.5t55 22.5t55 -22.5t22.5 -55.5t-22.5 -55.5t-55 -22.5t-55 22.5t-22.5 55.5zM164 117q0 33 22.5 55.5t55 22.5t55 -22.5t22.5 -55.5t-22.5 -55.5t-55 -22.5t-55 22.5t-22.5 55.5z" glyph-name="colon" horiz-adv-x="491" unicode=":"/><glyph d="M115 -217l102 340h117l-139 -340h-80zM174 860q0 33 22.5 55.5t55.5 22.5t55.5 -22.5t22.5 -55.5t-22.5 -55.5t-55.5 -22.5t-55.5 22.5t-22.5 55.5z" glyph-name="semicolon" horiz-adv-x="507" unicode=";"/><glyph d="M190 621l611 -351v-86l-680 400v73l680 406v-88z" glyph-name="less" horiz-adv-x="952" unicode="&lt;"/><glyph d="M180 727v70h793v-70h-793zM180 444v72h793v-72h-793z" glyph-name="equal" horiz-adv-x="1146" unicode="="/><glyph d="M174 975v88l680 -406v-73l-680 -400v82l610 355z" glyph-name="greater" horiz-adv-x="983" unicode=">"/><glyph d="M422 1454q180 0 311 -105.5t129 -289.5t-121.5 -293t-298.5 -141q-10 -218 -16 -394h-59l-13 459q180 6 307 105.5t125 257.5t-110.5 241.5t-257.5 83.5q-78 0 -165 -37t-144 -92l-46 49q135 156 359 156zM398 143q32 0 53.5 -22.5t21.5 -55t-21.5 -54t-53.5 -21.5 t-54 21.5t-22 54t22 55t54 22.5z" glyph-name="question" horiz-adv-x="962" unicode="?"/><glyph d="M473 465q0 -94 52.5 -153.5t138.5 -59.5q141 0 254.5 164t113.5 315q0 229 -184 230q-172 2 -273.5 -159t-101.5 -337zM1077 254q113 0 229.5 166t116.5 340q0 227 -176 373.5t-418 146.5q-287 0 -473 -195.5t-186 -468.5q0 -156 71.5 -296t190.5 -231t274.5 -127 t323.5 18q16 -35 29 -56q-304 -93 -553.5 36t-326.5 321t-77 335q0 303 210 514t504 211t484.5 -166.5t190.5 -404.5t-149.5 -416t-299.5 -168q-55 2 -77.5 40t-22.5 120q-57 -76 -136 -118t-153 -42q-119 0 -184.5 78t-65.5 207t53.5 256t160 213t239.5 86q76 0 144.5 -52 t82.5 -163l64 174h70l-187 -555q-25 -74 -24 -102q0 -74 71 -74z" glyph-name="at" horiz-adv-x="1562" unicode="@"/><glyph d="M303 504l-176 -504h-86l530 1479h117l533 -1479h-86l-183 504h-649zM332 584h594l-297 835z" glyph-name="A" horiz-adv-x="1267" unicode="A"/><glyph d="M256 1378v-575h465q143 0 230 71.5t87 213.5t-89 216t-228 74h-465zM256 731v-653h465q383 -6 383 317q0 340 -383 336h-465zM719 -2h-543v1454h545q168 0 280.5 -96t112.5 -264q0 -92 -37 -174t-112 -125l-60 -25l68 -14q215 -84 211 -361q-4 -207 -129 -301t-336 -94z " glyph-name="B" horiz-adv-x="1290" unicode="B"/><glyph d="M637 1386q-178 0 -310 -90t-132 -249v-644q0 -160 132 -250t310 -90q127 0 238.5 49.5t166.5 137.5q10 -4 23.5 -11.5t24 -12.5t22.5 -11q-61 -113 -191 -172t-284 -59q-211 0 -366.5 111t-155.5 308v644q0 197 157.5 308t370.5 111q154 0 282 -58t187 -171 q-41 -25 -72 -37q-53 88 -163.5 137t-239.5 49z" glyph-name="C" horiz-adv-x="1179" unicode="C"/><glyph d="M686 0h-504v1450h504q211 0 346 -100.5t135 -302.5v-646q0 -201 -135 -301t-346 -100zM262 1370v-1290h424q178 0 289.5 79t111.5 242v646q0 164 -111.5 243.5t-289.5 79.5h-424z" glyph-name="D" horiz-adv-x="1269" unicode="D"/><glyph d="M1059 1450v-80h-797v-604h735v-82h-735v-602h797v-80h-877v1448h877z" glyph-name="E" horiz-adv-x="1171" unicode="E"/><glyph d="M182 1450h865v-80h-785v-633h707v-80h-707v-655h-80v1448z" glyph-name="F" horiz-adv-x="1118" unicode="F"/><glyph d="M1028 1196q-102 188 -422 188q-154 0 -285 -89t-131 -251v-632q0 -164 131.5 -254t311.5 -90t312 90t132 254v215h-444v80h524v-295q0 -201 -155.5 -313.5t-368.5 -112.5t-367.5 112.5t-154.5 313.5v632q0 197 155.5 308.5t366.5 111.5q152 0 279.5 -59t187.5 -172 q-36 -21 -72 -37z" glyph-name="G" horiz-adv-x="1337" unicode="G"/><glyph d="M1147 0v684h-887v-684h-80v1450h80v-686h887v686h80v-1450h-80z" glyph-name="H" horiz-adv-x="1409" unicode="H"/><glyph d="M184 0v1448h80v-1448h-80z" glyph-name="I" horiz-adv-x="475" unicode="I"/><glyph d="M520 53q156 0 280 91t124 253v973h-484v80h564v-1053q0 -197 -149 -307t-337 -110t-321.5 82.5t-171.5 236.5l75 16q33 -125 148.5 -193.5t271.5 -68.5z" glyph-name="J" horiz-adv-x="1185" unicode="J"/><glyph d="M182 2v1448h80v-846q135 131 421 423t419 423h98l-678 -698q106 -115 331.5 -369t344.5 -381h-100l-633 692l-203 -202v-490h-80z" glyph-name="K" horiz-adv-x="1245" unicode="K"/><glyph d="M264 82h725v-80h-805v1450h80v-1370z" glyph-name="L" horiz-adv-x="1036" unicode="L"/><glyph d="M256 0h-80v1450h139l502 -1139l504 1139h135v-1450h-80v1389l-516 -1170h-86l-518 1172v-1391z" glyph-name="M" horiz-adv-x="1632" unicode="M"/><glyph d="M182 0v1450h101l839 -1350v1350h80v-1450h-117l-823 1327v-1327h-80z" glyph-name="N" horiz-adv-x="1411" unicode="N"/><glyph d="M143 403v644q0 135 82 234t205 144t266.5 45t266 -45t205.5 -144t83 -234v-644q0 -135 -82 -234t-205.5 -145.5t-267 -46.5t-266.5 46.5t-205 145.5t-82 234zM223 1047v-644q0 -164 140.5 -255t333 -91t332.5 91.5t142 254.5v644q0 170 -140 258t-336 87t-334 -89 t-138 -256z" glyph-name="O" horiz-adv-x="1396" unicode="O"/><glyph d="M713 563h-449v-561h-80v1448h527q145 -2 252.5 -68.5t155.5 -165t49 -212t-47 -211t-154.5 -164t-253.5 -66.5zM264 643h447q123 0 212 54.5t129 134t39 174t-42 175.5t-129.5 135t-208.5 54h-447v-727z" glyph-name="P" horiz-adv-x="1261" unicode="P"/><glyph d="M1171 1034q0 170 -139 258t-335 87t-334 -89t-138 -256v-618q-2 -164 139.5 -255t332.5 -91t335 90l-123 162l62 43l119 -156q82 102 81 207v618zM1251 416q0 -152 -112 -273q14 -20 51 -64t49 -59q-8 -4 -65 -40l-95 116q-172 -106 -381 -106q-313 0 -433 145.5 t-120 280.5v618q0 135 82 234.5t205 144.5t266.5 45t266 -45t204.5 -144.5t82 -234.5v-618z" glyph-name="Q" horiz-adv-x="1398" unicode="Q"/><glyph d="M711 635h-47q80 -100 247.5 -321.5t239.5 -313.5h-94l-488 635h-307v-635h-80v1450h527q207 0 333.5 -101.5t131.5 -306.5q0 -221 -121 -314t-342 -93zM262 705h449q197 0 290 77.5t93 257.5q0 336 -383 330h-449v-665z" glyph-name="R" horiz-adv-x="1277" unicode="R"/><glyph d="M596 1399q-148 0 -261.5 -69t-124.5 -212t101.5 -222t306.5 -118q109 -23 185 -47t197.5 -96.5t109.5 -282.5q-8 -174 -154 -272t-322 -98t-316 65.5t-201 185.5l71 33q53 -98 172.5 -153.5t267.5 -55.5t266 74t136 223q4 72 -20.5 129.5t-60.5 91t-103.5 62.5t-116.5 41 t-139 32q-185 40 -325 125.5t-132 282.5q6 168 146.5 260t316.5 92t310 -62t194 -181l-72 -31q-49 96 -166.5 149.5t-265.5 53.5z" glyph-name="S" horiz-adv-x="1218" unicode="S"/><glyph d="M41 1372v80h1046v-80h-483v-1370h-80v1370h-483z" glyph-name="T" horiz-adv-x="1128" unicode="T"/><glyph d="M176 418v1032h80v-1032q0 -166 131 -258t311.5 -92t312.5 92t132 258v1032h80v-1032q0 -203 -156 -317.5t-369 -114.5t-367.5 114.5t-154.5 317.5z" glyph-name="U" horiz-adv-x="1400" unicode="U"/><glyph d="M618 35q259 724 502 1413h86l-522 -1473h-129l-530 1475h88z" glyph-name="V" horiz-adv-x="1243" unicode="V"/><glyph d="M944 1141q-147 -456 -369 -1159h-118l-422 1468h82l395 -1419h8l381 1208h84l383 -1208h8l398 1419h81l-425 -1468h-119z" glyph-name="W" horiz-adv-x="1892" unicode="W"/><glyph d="M596 793l432 655h94l-479 -725q70 -102 233.5 -351t247.5 -372h-96l-432 666l-434 -666h-96l483 723l-479 725h90z" glyph-name="X" horiz-adv-x="1206" unicode="X"/><glyph d="M625 0h-80v573l-488 875h93l436 -803l434 803h94l-489 -875v-573z" glyph-name="Y" horiz-adv-x="1171" unicode="Y"/><glyph d="M100 1376v74h947l43 -45l-922 -1331h893v-74h-969l-35 47l920 1329h-877z" glyph-name="Z" horiz-adv-x="1153" unicode="Z"/><glyph d="M426 1546v-65h-188v-1667h188v-66h-266v1798h266z" glyph-name="bracketleft" horiz-adv-x="481" unicode="["/><glyph d="M66 1550l641 -1603l-72 -25l-639 1606z" glyph-name="backslash" horiz-adv-x="741" unicode="\"/><glyph d="M35 -268v75h184v1668h-184v71h266v-1814h-266z" glyph-name="bracketright" horiz-adv-x="430" unicode="]"/><glyph d="M557 1391q-320 -472 -326 -480h-92l381 539h74q68 -90 197 -269.5t196 -269.5h-92z" glyph-name="asciicircum" horiz-adv-x="1169" unicode="^"/><glyph d="M20 -129v74h984v-74h-984z" glyph-name="underscore" horiz-adv-x="1024" unicode="_"/><glyph d="M168 1448l141 -225h-78l-180 225h117z" glyph-name="grave" horiz-adv-x="430" unicode="`"/><glyph d="M502 1075q154 0 264.5 -82t110.5 -229v-723q-190 -63 -414 -59q-150 2 -250 97t-99 254t113.5 242.5t277.5 83.5t298 -59v164q0 121 -91 181.5t-233 60.5t-254 -105l-45 49q119 125 322 125zM786 82l17 6v442q-154 62 -296 62t-231.5 -62.5t-90.5 -197.5t79 -209t223 -77 t299 36z" glyph-name="a" unicode="a"/><glyph d="M141 1450h74v-446q159 72 311 72t266.5 -87.5t114.5 -236.5v-435q0 -154 -112.5 -242.5t-264.5 -92.5q-201 0 -389 59v1409zM530 53q121 0 212.5 71t88.5 189v439q2 119 -139.5 219.5t-464.5 -43.5l-12 -8v-822q133 -45 315 -45z" glyph-name="b" horiz-adv-x="1026" unicode="b"/><glyph d="M193 754v-445q0 -121 89.5 -185.5t201.5 -64.5t193 41t114 115l67 -33q-43 -92 -142.5 -144t-234.5 -52t-248.5 85t-113.5 238v441q0 154 113.5 238.5t267.5 84.5q104 0 194.5 -39.5t139.5 -115.5l-60 -39q-82 121 -274 120q-125 0 -216 -63.5t-91 -181.5z" glyph-name="c" horiz-adv-x="905" unicode="c"/><glyph d="M829 1450h74v-1403q-201 -63 -389 -63q-154 4 -265.5 88t-111.5 235v443q0 150 115.5 237.5t271.5 86.5t305 -68v444zM536 55q148 0 293 49v828q-154 68 -296 66t-232 -65t-88 -181v-445q-2 -121 86.5 -186.5t236.5 -65.5z" glyph-name="d" horiz-adv-x="1046" unicode="d"/><glyph d="M813 547v203q0 119 -91 183t-218 64t-217 -64.5t-88 -182.5v-203h614zM852 162q-91 -174 -368 -174q-134 0 -247.5 85t-113.5 238v434q0 154 113.5 239t268.5 85t268.5 -85t113.5 -239v-266h-688v-168q-2 -121 88 -184.5t219 -63.5q201 0 278 134z" glyph-name="e" horiz-adv-x="1005" unicode="e"/><glyph d="M223 1139v-258h230v-74h-230v-807h-73v1139q0 152 88 234.5t229 88.5v-73q-113 -4 -178.5 -70t-65.5 -180z" glyph-name="f" horiz-adv-x="536" unicode="f"/><glyph d="M813 -49v110q-155 -77 -307 -77t-264.5 87t-112.5 236v457q0 150 109.5 233.5t263.5 84.5t383 -76v-1053q0 -154 -109.5 -233.5t-265.5 -79.5q-203 -1 -322 112l45 45q92 -74 229.5 -88t244 49.5t106.5 192.5zM801 127l12 10v813q-143 61 -313 62q-123 0 -211 -64.5 t-86 -181.5v-459q-2 -119 86 -182.5t215 -67.5q131 2 297 70z" glyph-name="g" horiz-adv-x="1026" unicode="g"/><glyph d="M162 0v1450h74v-485q162 76 307 75q154 4 267.5 -84t113.5 -237v-719h-74v719q0 119 -90 182.5t-230 64.5t-294 -63v-903h-74z" glyph-name="h" horiz-adv-x="1081" unicode="h"/><glyph d="M145 1364q0 29 21.5 50.5t50.5 21.5t50.5 -21.5t21.5 -50.5t-21.5 -50.5t-50.5 -21.5t-50.5 21.5t-21.5 50.5zM184 -2v1065h74v-1065h-74z" glyph-name="i" horiz-adv-x="440" unicode="i"/><glyph d="M154 1374.5q0 28.5 21.5 50t50 21.5t50 -21.5t21.5 -50t-21.5 -50t-50 -21.5t-50 21.5t-21.5 50zM188 -45v1108h74v-1108q0 -154 -81 -238t-224 -90v74q231 6 231 254z" glyph-name="j" horiz-adv-x="448" unicode="j"/><glyph d="M160 0v1448h73v-995l590 606h90l-458 -475l458 -584h-88l-422 530l-170 -170v-360h-73z" glyph-name="k" horiz-adv-x="966" unicode="k"/><glyph d="M434 68v-74q-283 10 -282 315v1141h73v-1141q0 -241 209 -241z" glyph-name="l" horiz-adv-x="475" unicode="l"/><glyph d="M242 0h-76v999q119 86 337 86t335 -147q66 80 136 107.5t169 31.5q160 6 268.5 -83t108.5 -251v-743h-76v739q10 160 -132.5 230.5t-290 17.5t-149.5 -194v-793h-71v793q-2 106 -108.5 163.5t-236.5 52.5t-214 -59v-950z" glyph-name="m" horiz-adv-x="1683" unicode="m"/><glyph d="M238 0h-74v1006q223 78 381 76t268.5 -87.5t110.5 -234.5v-760h-74v760q0 119 -89 183.5t-235 64.5t-288 -62v-946z" glyph-name="n" horiz-adv-x="1089" unicode="n"/><glyph d="M516 999q-125 0 -217 -63.5t-92 -185.5v-441q0 -123 92 -187.5t216 -64.5t216 64.5t92 187.5v441q0 123 -91 186t-216 63zM133 309v441q0 154 113.5 238.5t269.5 84.5t268.5 -85t112.5 -238v-441q0 -154 -112.5 -238.5t-268.5 -84.5t-269.5 84.5t-113.5 238.5z" glyph-name="o" horiz-adv-x="1030" unicode="o"/><glyph d="M217 -371h-74v1387q190 61 389 61q158 -2 267.5 -83t109.5 -240v-441q0 -152 -114.5 -240.5t-282.5 -85.5t-295 62v-420zM532 1001q-192 0 -315 -43v-831q158 -66 297 -65t230.5 66t89.5 181v445q2 123 -86.5 185t-215.5 62z" glyph-name="p" unicode="p"/><glyph d="M893 -371h-74v428q-151 -71 -307 -73t-270.5 89t-114.5 242v441q0 152 111.5 236.5t249.5 85.5t211 -12t194 -52v-1385zM504 1004q-123 0 -213 -65t-88 -179v-445q-2 -121 88 -185t217 -67q166 0 311 80v820q-119 41 -315 41z" glyph-name="q" unicode="q"/><glyph d="M221 745v-745h-74v745q0 125 79 209t202 109q47 10 137 2v-72q-179 18 -261.5 -65.5t-82.5 -182.5z" glyph-name="r" horiz-adv-x="628" unicode="r"/><glyph d="M100 798q0 149 123 224.5t274.5 57t235.5 -110.5l-45 -54q-70 78 -191.5 96.5t-221 -40t-103.5 -176.5q0 -47 22.5 -85t46 -57.5t74 -37t73 -21.5t75.5 -14q319 -57 321 -297q0 -135 -97 -213t-223 -82q-254 -8 -392 192l59 39q125 -170 324 -164q98 2 180 61.5t81 168.5 t-81.5 156.5t-168.5 62.5q-155 28 -260.5 86.5t-105.5 207.5z" glyph-name="s" horiz-adv-x="864" unicode="s"/><glyph d="M158 334v1096h73v-390h230v-73h-230v-633q0 -123 91.5 -186.5t216.5 -63.5l-21 20v-94q-150 4 -255 89t-105 235z" glyph-name="t" horiz-adv-x="563" unicode="t"/><glyph d="M838 1061h73v-1002q-223 -77 -381 -75t-268 87t-110 234v756h73v-756q0 -119 88.5 -183.5t234.5 -64.5t290 62v942z" glyph-name="u" horiz-adv-x="1058" unicode="u"/><glyph d="M127 1061l354 -1018l355 1018h77l-378 -1075h-109q-61 174 -190.5 537.5t-188.5 537.5h80z" glyph-name="v" horiz-adv-x="956" unicode="v"/><glyph d="M969 -6l-240 1018l-244 -1018h-118l-320 1067h76l303 -1028l246 1028h112l250 -1024q227 772 301 1024h76l-317 -1067h-125z" glyph-name="w" horiz-adv-x="1458" unicode="w"/><glyph d="M459 582l303 479h90l-344 -531l344 -530h-90l-303 479l-305 -479h-91l347 530l-347 531h93z" glyph-name="x" horiz-adv-x="923" unicode="x"/><glyph d="M836 1059h71v-1106q0 -154 -109.5 -233.5t-265.5 -79.5q-203 0 -321 112l45 45q92 -74 229.5 -88t244 49.5t106.5 192.5v110q-154 -77 -307 -77t-266 87t-113 236v752h73v-752q-2 -119 87 -182.5t216 -67.5q131 2 297 70l13 10v922z" glyph-name="y" horiz-adv-x="1062" unicode="y"/><glyph d="M88 991v70h709l30 -49l-677 -940h667v-72h-729l-39 57l676 934h-637z" glyph-name="z" horiz-adv-x="894" unicode="z"/><glyph d="M508 1544v-69h-55q-72 0 -90.5 -39t-18.5 -138v-299q2 -158 -39 -245.5t-90 -108.5q127 -92 127 -362v-301q0 -84 24.5 -122t96.5 -38h45v-72h-49q-193 0 -193 227v299q0 307 -143 332v62q145 25 145 334v296q0 121 37 182.5t141 61.5h62z" glyph-name="braceleft" horiz-adv-x="587" unicode="{"/><glyph d="M199 1544h73v-1888h-73v1888z" glyph-name="bar" horiz-adv-x="471" unicode="|"/><glyph d="M70 1475v69h61q104 0 141 -61.5t37 -182.5v-296q0 -309 146 -334v-62q-143 -25 -144 -332v-299q0 -227 -192 -227h-49v72h45q72 0 96.5 38t24.5 122v301q0 270 126 362q-49 20 -90 108.5t-39 245.5v299q0 68 -8.5 122.5t-99.5 54.5h-55z" glyph-name="braceright" horiz-adv-x="571" unicode="}"/><glyph d="M395 725q76 0 195 -80q96 -61 147 -61q97 0 185 131l39 -35q-82 -160 -224 -160q-84 0 -184 68q-6 4 -22.5 14t-23.5 15.5t-42 23.5t-76 18q-96 0 -184 -129l-39 39q90 156 229 156z" glyph-name="asciitilde" horiz-adv-x="1103" unicode="~"/><glyph d="M238 -434v1153h81v-1153h-81zM356 983q0 -33 -22.5 -55.5t-55 -22.5t-55 22.5t-22.5 55.5t22.5 55.5t55 22.5t55 -22.5t22.5 -55.5z" glyph-name="exclamdown" horiz-adv-x="569" unicode="¡"/><glyph d="M530 -195h-63v187q-145 16 -244.5 100t-99.5 223v433q0 139 99.5 223t244.5 98v188h63v-186q210 -13 306 -156l-60 -38q-70 104 -246 120v-931q209 18 265 155l65 -33q-37 -86 -126 -136t-204 -60v-187zM467 68v927q-119 -16 -195.5 -78.5t-74.5 -164.5v-437 q-2 -106 74.5 -168.5t195.5 -78.5z" glyph-name="cent" horiz-adv-x="942" unicode="¢"/><glyph d="M61 0v68h213v659h-213v70h213v276q0 158 93.5 276.5t298.5 118.5q135 0 247 -92l-51 -51q-84 74 -203 74q-154 0 -231.5 -96.5t-77.5 -223.5v-282h338v-70h-338v-659h502v-68h-791z" glyph-name="sterling" horiz-adv-x="937" unicode="£"/><glyph d="M92 720q0 188 127 327l-113 114l44 45l108 -112q150 116 325 116t324 -116l107 112l43 -45l-111 -114q125 -137 125 -321t-127 -323l119 -114l-47 -45l-111 112q-147 -114 -329 -114t-324 110l-102 -108l-44 45l107 110q-121 133 -121 321zM162 724q0 -175 123 -297 t294 -122t293.5 122t122.5 297t-122.5 298t-293.5 123t-294 -123t-123 -298z" glyph-name="currency" horiz-adv-x="1148" unicode="¤"/><glyph d="M518 541v-127h346q0 -10 -12 -70h-334v-344h-74v344h-340l9 70h331v127h-335l12 71h289l-455 840h92l436 -823q136 250 443 823h96l-463 -840h305q-8 -39 -14 -71h-332z" glyph-name="yen" horiz-adv-x="1003" unicode="¥"/><glyph d="M180 1425h78v-675h-78v675zM180 442h78v-716h-78v716z" glyph-name="brokenbar" horiz-adv-x="436" unicode="¦"/><glyph d="M805 559q0 135 -176 232l-162 77q-238 -80 -238 -223q0 -82 40 -127t118 -84l229 -108q72 39 130.5 102.5t58.5 130.5zM551 1393q-109 0 -193 -62.5t-84 -161.5t82 -154t178 -99q147 -68 247 -142.5t100 -204.5q0 -82 -54.5 -158.5t-136.5 -123.5q76 -45 119 -111.5 t43 -134.5q0 -111 -62.5 -189.5t-157.5 -105.5t-195.5 -20.5t-188.5 64t-125 151.5l74 34q23 -70 89 -115.5t147 -53t158 9t128 74.5t51 122t-21.5 104t-86 85t-161.5 88q-96 43 -140 67.5t-129 87t-85 197.5q0 172 230 272q-90 53 -135 112.5t-45 139.5q0 139 108.5 220 t251.5 81q92 0 178 -40t123 -121l-65 -39q-68 127 -242 127z" glyph-name="section" horiz-adv-x="1015" unicode="§"/><glyph d="M412 1390.5q0 26.5 18.5 45t45 18.5t45 -18.5t18.5 -45t-18.5 -45t-45 -18.5t-45 18.5t-18.5 45zM43 1390.5q0 26.5 18.5 45t45 18.5t45 -18.5t18.5 -45t-18.5 -45t-45 -18.5t-45 18.5t-18.5 45z" glyph-name="dieresis" horiz-adv-x="614" unicode="¨"/><glyph d="M82 725q0 305 218 523t523 218t523.5 -218t218.5 -523t-218.5 -523t-523.5 -218t-523 218t-218 523zM152 725q0 -279 196.5 -475.5t475 -196.5t475 196.5t196.5 475.5t-196.5 475.5t-475 196.5t-475 -196.5t-196.5 -475.5zM516 885v-314q0 -121 90 -185t202 -64 t192.5 40.5t113.5 114.5l68 -33q-43 -92 -142.5 -144t-235.5 -52t-249 85t-113 238v310q0 154 114 238.5t267 84.5q104 0 194.5 -39.5t139.5 -115.5l-59 -39q-82 121 -275 120q-125 0 -216 -63t-91 -182z" glyph-name="copyright" horiz-adv-x="1626" unicode="©"/><glyph d="M506 1249q0 68 -54 102.5t-144 34.5t-163 -67l-49 45q92 92 230 92q102 0 177 -55t75 -156v-459q-129 -42 -254 -38t-193 67t-67 169t77.5 159t176.5 53t188 -37v90zM506 831v265q-94 33 -180 32q-188 0 -191 -147q0 -76 47.5 -122t133.5 -47t190 19z" glyph-name="ordfeminine" horiz-adv-x="677" unicode="ª"/><glyph d="M420 256l-62 -39l-262 387l262 389l64 -41l-236 -348q182 -274 234 -348zM674 256l-62 -39l-262 387l262 389l64 -41l-240 -348q35 -53 238 -348z" glyph-name="guillemotleft" horiz-adv-x="784" unicode="«"/><glyph d="M944 369v356h-864v72h936v-428h-72z" glyph-name="logicalnot" horiz-adv-x="1132" unicode="¬"/><glyph d="M109 514v76h464v-76h-464z" glyph-name="uni00AD" horiz-adv-x="681" unicode="­"/><glyph d="M618 657v-348h-69v842h293q133 0 207.5 -67.5t74.5 -173.5t-64.5 -170t-166.5 -83q90 -127 252 -348h-82l-256 348h-189zM618 1085v-362h162q121 0 197 39t76 138t-64.5 142t-152.5 43h-218zM68 725q0 305 218 523t523 218t523 -218t218 -523t-218 -523t-523 -218 t-523 218t-218 523zM139 725q0 -279 195.5 -474.5t474 -195.5t474.5 195.5t196 474.5t-196 474.5t-474.5 195.5t-474 -195.5t-195.5 -474.5z" glyph-name="registered" horiz-adv-x="1607" unicode="®"/><glyph d="M496 1442v-78h-500v78h500z" glyph-name="macron" horiz-adv-x="524" unicode="¯"/><glyph d="M354.5 950q-104.5 0 -179.5 75t-75 180t75 179t179.5 74t179 -73t74.5 -179t-74.5 -181t-179 -75zM354 1012q78 0 133.5 56t55.5 136t-55.5 136.5t-133.5 56.5t-133 -56.5t-55 -136.5t55 -136t133 -56z" glyph-name="degree" horiz-adv-x="714" unicode="°"/><glyph d="M154 801v71h385v367h71v-367h400v-71h-400v-373h-71v373h-385zM162 215v70h839v-70h-839z" glyph-name="plusminus" horiz-adv-x="1161" unicode="±"/><glyph d="M621 666v-64h-547l-19 49q133 125 408 396q43 43 69.5 103t10.5 114q-41 86 -142.5 108.5t-177.5 -12.5t-102 -80q-10 4 -20.5 8t-21.5 10.5t-18 8.5q45 82 140 116h-2q76 20 154.5 22.5t151.5 -39.5t103 -118q25 -74 -2 -153t-90 -134l-352 -335h457z" glyph-name="uni00B2" horiz-adv-x="692" unicode="²"/><glyph d="M336 1024v51h41q76 0 131 51q41 43 39 98.5t-37 98.5q-57 63 -160 63q-143 0 -198 -96l-50 27q61 117 238 127q59 4 117.5 -16.5t95.5 -61.5q59 -57 57.5 -149.5t-69.5 -143.5l-31 -16q115 -39 132 -174t-77 -205q-91 -75 -231 -70q-86 4 -159 43t-105 109l53 26 q27 -51 87 -80.5t126 -33.5q109 -8 188 57q56 43 56 127t-57.5 128t-145.5 40h-41z" glyph-name="uni00B3" horiz-adv-x="706" unicode="³"/><glyph d="M129 1204l129 246h113l-170 -246h-72z" glyph-name="acute" horiz-adv-x="450" unicode="´"/><glyph d="M477 -4q-180 0 -260 141v-583h-76v1509h78v-674q0 -84 18.5 -150.5t80 -119.5t159.5 -53q154 0 251 104t97 303v590h78l6 -1063h-73l-5 211q-45 -100 -143 -157.5t-211 -57.5z" glyph-name="uni00B5" horiz-adv-x="1028" unicode="µ"/><glyph d="M539 -238v824q-221 0 -350.5 127t-129.5 302t126 305t354 130h444v-1688h-68v1633h-307v-1633h-69z" glyph-name="paragraph" horiz-adv-x="1128" unicode="¶"/><glyph d="M188 651q0 33 22.5 55.5t55.5 22.5t55.5 -22.5t22.5 -55.5t-22.5 -55.5t-55.5 -22.5t-55.5 22.5t-22.5 55.5z" glyph-name="periodcentered" horiz-adv-x="532" unicode="·"/><glyph d="M350 -212q0 48 -37 70.5t-85 22.5t-74 -10l-7 6q36 62 93 141h57l-59 -92q78 16 131 -31t50 -105t-40 -97t-88 -52.5t-108.5 -7t-98.5 32.5l10 47q52 -23 112 -23t102 25t42 73z" glyph-name="cedilla" horiz-adv-x="499" unicode="¸"/><glyph d="M319 625v735l-141 -164l-53 41l190 215h74v-827h-70z" glyph-name="uni00B9" horiz-adv-x="577" unicode="¹"/><glyph d="M366.5 737q-116.5 0 -204.5 62.5t-88 173.5v237q0 111 88 173.5t204.5 62.5t204.5 -62.5t88 -173.5v-237q0 -111 -88 -173.5t-204.5 -62.5zM143 1204v-225q0 -90 65.5 -132t158 -42t158 42t65.5 132v225q0 90 -65.5 132t-158 42t-158 -42t-65.5 -132z" glyph-name="ordmasculine" horiz-adv-x="745" unicode="º"/><glyph d="M377 952l61 39l262 -387l-262 -389l-63 41l239 348q-35 53 -237 348zM127 952l61 39l263 -387l-263 -389l-63 41l240 348q-35 53 -238 348z" glyph-name="guillemotright" horiz-adv-x="788" unicode="»"/><glyph d="M1087 1491l58 -37l-916 -1495l-55 35zM1227 836v-572h67v-57h-67v-207h-66v207h-432l-41 63l445 566h94zM760 264h401l6 514zM264 625v735l-143 -162l-51 39l190 215h70v-827h-66z" glyph-name="onequarter" horiz-adv-x="1394" unicode="¼"/><glyph d="M1114 1491l57 -37l-915 -1495l-55 35zM1448 68v-68h-547l-18 49q70 66 207 208t200 202q109 102 74 219q-55 115 -187.5 114t-199.5 -102q-6 2 -66 29q45 82 140 117h-2q168 57 262 -1.5t125 -134.5q25 -74 -2.5 -152.5t-90.5 -133.5l-344 -346h449zM285 625v735 l-144 -162l-51 39l191 215h69v-827h-65z" glyph-name="onehalf" horiz-adv-x="1556" unicode="½"/><glyph d="M1282 1491l55 -37l-915 -1495l-53 35zM1364 836v-572h68v-57h-68v-207h-66v207h-432l-41 63l445 566h94zM897 264h401l7 514zM379 1024v51h41q76 0 131 51q41 43 39 98.5t-37 98.5q-57 63 -160 63q-143 0 -198 -96l-50 27q61 117 238 127q59 4 117.5 -16.5t95.5 -61.5 q59 -57 57.5 -149.5t-69.5 -143.5l-31 -16q115 -39 132 -174t-77 -205q-91 -75 -231 -70q-86 4 -159 43t-105 109l53 26q27 -51 87 -80.5t126 -33.5q109 -8 188 57q55 43 55 127t-57 128t-145 40h-41z" glyph-name="threequarters" horiz-adv-x="1556" unicode="¾"/><glyph d="M524 -319q78 0 165.5 37t144.5 92l45 -50q-135 -156 -359 -155q-180 0 -311 105.5t-129 289.5t122 292.5t298 141.5q10 212 16 393h59l13 -458q-180 -6 -307 -105.5t-125 -257.5t110.5 -241.5t257.5 -83.5zM544 915q-32 0 -53.5 23t-21.5 55.5t21.5 54t53.5 21.5 t54.5 -21.5t22.5 -54t-22.5 -55.5t-54.5 -23z" glyph-name="questiondown" horiz-adv-x="978" unicode="¿"/><glyph d="M303 504l-176 -504h-86l530 1479h117l533 -1479h-86l-183 504h-649zM332 584h594l-297 835zM545 1780l141 -226h-78l-180 226h117z" glyph-name="Agrave" horiz-adv-x="1267" unicode="À"/><glyph d="M303 504l-176 -504h-86l530 1479h117l533 -1479h-86l-183 504h-649zM332 584h594l-297 835zM569 1546l129 246h113l-170 -246h-72z" glyph-name="Aacute" horiz-adv-x="1267" unicode="Á"/><glyph d="M303 504l-176 -504h-86l530 1479h117l533 -1479h-86l-183 504h-649zM332 584h594l-297 835zM381 1524l201 223h90l200 -223h-75l-172 176l-166 -176h-78z" glyph-name="Acircumflex" horiz-adv-x="1267" unicode="Â"/><glyph d="M303 504l-176 -504h-86l530 1479h117l533 -1479h-86l-183 504h-649zM332 584h594l-297 835zM724 1630q40 0 62 47l43 -16q-10 -45 -42.5 -73.5t-67.5 -28.5t-95 27.5t-96 27.5t-61 -53l-43 24q27 100 123 101q27 0 82 -28t95 -28z" glyph-name="Atilde" horiz-adv-x="1267" unicode="Ã"/><glyph d="M303 504l-176 -504h-86l530 1479h117l533 -1479h-86l-183 504h-649zM332 584h594l-297 835zM741 1609q0 26 16.5 43t39 17t39 -17.5t16.5 -43.5t-16.5 -44t-39 -18t-39 18.5t-16.5 44.5zM418 1609q0 26 17.5 43t40 17t38.5 -17.5t16 -43.5t-16 -44t-38.5 -18t-40 18.5 t-17.5 44.5z" glyph-name="Adieresis" horiz-adv-x="1267" unicode="Ä"/><glyph d="M303 504l-176 -504h-86l530 1479h117l533 -1479h-86l-183 504h-649zM332 584h594l-297 835zM461 1691.5q0 71.5 51 123t120.5 51.5t119 -54t49.5 -122t-50.5 -120t-118.5 -52t-119.5 51t-51.5 122.5zM739 1692q0 45 -31.5 78.5t-76.5 33.5t-77 -34.5t-32 -79.5t32 -78 t77 -33t76.5 34t31.5 79z" glyph-name="Aring" horiz-adv-x="1267" unicode="Å"/><glyph d="M1503 1450v-76h-622v-631h559v-77h-559v-592h622v-74h-698v504h-451q-194 -389 -256 -506h-88l729 1452h764zM805 580v802l-19 2l-395 -804h414z" glyph-name="AE" horiz-adv-x="1562" unicode="Æ"/><glyph d="M637 1386q-178 0 -310 -90t-132 -249v-644q0 -160 132 -250t310 -90q127 0 238.5 49.5t166.5 137.5l70 -35q-61 -113 -191 -172t-284 -59h-4l-35 -56q78 16 131 -31t50 -105t-40 -97t-88 -52.5t-108.5 -7t-98.5 32.5l11 47q53 -23 113 -23t101.5 25t41.5 73t-37 70.5 t-85 22.5t-75 -10l-6 6q31 53 70 107q-193 14 -328 124.5t-135 292.5v644q0 197 157.5 308t370.5 111q154 0 282 -58t187 -171q-41 -25 -72 -37q-53 88 -163.5 137t-239.5 49z" glyph-name="Ccedilla" horiz-adv-x="1179" unicode="Ç"/><glyph d="M1059 1450v-80h-797v-604h735v-82h-735v-602h797v-80h-877v1448h877zM549 1757l141 -225h-78l-180 225h117z" glyph-name="Egrave" horiz-adv-x="1171" unicode="È"/><glyph d="M1059 1450v-80h-797v-604h735v-82h-735v-602h797v-80h-877v1448h877zM582 1538l129 246h112l-170 -246h-71z" glyph-name="Eacute" horiz-adv-x="1171" unicode="É"/><glyph d="M1059 1450v-80h-797v-604h735v-82h-735v-602h797v-80h-877v1448h877zM387 1524l201 223h90l201 -223h-82l-166 174l-162 -174h-82z" glyph-name="Ecircumflex" horiz-adv-x="1171" unicode="Ê"/><glyph d="M1059 1450v-80h-797v-604h735v-82h-735v-602h797v-80h-877v1448h877zM752 1615.5q0 26.5 18 45t45 18.5t45.5 -18.5t18.5 -45t-18.5 -45t-45.5 -18.5t-45 18.5t-18 45zM383 1615.5q0 26.5 18.5 45t45 18.5t45 -18.5t18.5 -45t-18.5 -45t-45 -18.5t-45 18.5t-18.5 45z" glyph-name="Edieresis" horiz-adv-x="1171" unicode="Ë"/><glyph d="M184 0v1448h80v-1448h-80zM141 1759l135 -213h-77l-174 213h116z" glyph-name="Igrave" horiz-adv-x="475" unicode="Ì"/><glyph d="M184 0v1448h80v-1448h-80zM172 1534l129 246h113l-170 -246h-72z" glyph-name="Iacute" horiz-adv-x="475" unicode="Í"/><glyph d="M-12 1526l200 223h91l200 -223h-86l-162 166l-159 -166h-84zM184 0v1448h80v-1448h-80z" glyph-name="Icircumflex" horiz-adv-x="475" unicode="Î"/><glyph d="M184 0v1448h80v-1448h-80zM350 1624q0 27 18.5 45.5t45 18.5t45 -18.5t18.5 -45.5t-18.5 -45t-45 -18t-45 18t-18.5 45zM-18 1624q0 27 18 45.5t45 18.5t45.5 -18.5t18.5 -45.5t-18.5 -45t-45.5 -18t-45 18t-18 45z" glyph-name="Idieresis" horiz-adv-x="475" unicode="Ï"/><glyph d="M39 682v74h129v694h463q213 0 367.5 -111.5t154.5 -312.5v-604q0 -201 -154.5 -311.5t-367.5 -110.5h-463v682h-129zM248 80h383q180 0 311 90t131 252v604q0 164 -131 254t-311 90h-383v-614h256v-74h-256v-602z" glyph-name="Eth" horiz-adv-x="1255" unicode="Ð"/><glyph d="M182 0v1450h101l839 -1350v1350h80v-1450h-117l-823 1327v-1327h-80zM602 1679q31 0 94.5 -28.5t108.5 -28.5t74 51l47 -18q-12 -47 -49 -77t-77 -30t-107.5 30t-110.5 30t-72 -58l-49 27q29 102 141 102z" glyph-name="Ntilde" horiz-adv-x="1411" unicode="Ñ"/><glyph d="M143 403v644q0 135 82 234t205 144t266.5 45t266 -45t205.5 -144t83 -234v-644q0 -135 -82 -234t-205.5 -145.5t-267 -46.5t-266.5 46.5t-205 145.5t-82 234zM223 1047v-644q0 -164 140.5 -255t333 -91t332.5 91.5t142 254.5v644q0 170 -140 258t-336 87t-334 -89 t-138 -256zM594 1772l141 -226h-78l-180 226h117z" glyph-name="Ograve" horiz-adv-x="1396" unicode="Ò"/><glyph d="M143 403v644q0 135 82 234t205 144t266.5 45t266 -45t205.5 -144t83 -234v-644q0 -135 -82 -234t-205.5 -145.5t-267 -46.5t-266.5 46.5t-205 145.5t-82 234zM223 1047v-644q0 -164 140.5 -255t333 -91t332.5 91.5t142 254.5v644q0 170 -140 258t-336 87t-334 -89 t-138 -256zM668 1544l129 246h112l-170 -246h-71z" glyph-name="Oacute" horiz-adv-x="1396" unicode="Ó"/><glyph d="M143 403v644q0 135 82 234t205 144t266.5 45t266 -45t205.5 -144t83 -234v-644q0 -135 -82 -234t-205.5 -145.5t-267 -46.5t-266.5 46.5t-205 145.5t-82 234zM223 1047v-644q0 -164 140.5 -255t333 -91t332.5 91.5t142 254.5v644q0 170 -140 258t-336 87t-334 -89 t-138 -256zM461 1530l201 223h90l200 -223h-80l-167 172l-160 -172h-84z" glyph-name="Ocircumflex" horiz-adv-x="1396" unicode="Ô"/><glyph d="M143 403v644q0 135 82 234t205 144t266.5 45t266 -45t205.5 -144t83 -234v-644q0 -135 -82 -234t-205.5 -145.5t-267 -46.5t-266.5 46.5t-205 145.5t-82 234zM223 1047v-644q0 -164 140.5 -255t333 -91t332.5 91.5t142 254.5v644q0 170 -140 258t-336 87t-334 -89 t-138 -256zM633 1667q27 0 83 -25.5t95 -25.5t61 45l43 -16q-10 -43 -42.5 -71t-66.5 -28t-93 28t-97 28t-61 -54l-43 25q25 94 121 94z" glyph-name="Otilde" horiz-adv-x="1396" unicode="Õ"/><glyph d="M143 403v644q0 135 82 234t205 144t266.5 45t266 -45t205.5 -144t83 -234v-644q0 -135 -82 -234t-205.5 -145.5t-267 -46.5t-266.5 46.5t-205 145.5t-82 234zM223 1047v-644q0 -164 140.5 -255t333 -91t332.5 91.5t142 254.5v644q0 170 -140 258t-336 87t-334 -89 t-138 -256zM831 1603.5q0 26.5 18.5 45t45.5 18.5t45 -18.5t18 -45t-18 -45t-45 -18.5t-45.5 18.5t-18.5 45zM463 1603.5q0 26.5 18.5 45t45 18.5t45 -18.5t18.5 -45t-18.5 -45t-45 -18.5t-45 18.5t-18.5 45z" glyph-name="Odieresis" horiz-adv-x="1396" unicode="Ö"/><glyph d="M195 1026l55 53l334 -334l325 326l56 -53l-328 -326l321 -321l-53 -56l-321 322l-330 -330l-53 55l327 328z" glyph-name="multiply" horiz-adv-x="1148" unicode="×"/><glyph d="M143 408v636q0 135 119 279.5t434 144.5q115 0 244 -38l61 145l66 -23l-61 -149q246 -125 245 -359v-636q0 -135 -120 -280.5t-435 -145.5q-104 0 -237 38l-60 -151q-39 13 -67 20l61 158q-250 128 -250 361zM223 1044v-636q0 -180 199 -291l487 1243q-111 31 -215 31 q-195 -2 -333 -90.5t-138 -256.5zM1171 1044q0 180 -194 289l-488 -1241q109 -31 207 -31q193 0 333 91.5t142 255.5v636z" glyph-name="Oslash" horiz-adv-x="1396" unicode="Ø"/><glyph d="M176 418v1032h80v-1032q0 -166 131 -258t311.5 -92t312.5 92t132 258v1032h80v-1032q0 -203 -156 -317.5t-369 -114.5t-367.5 114.5t-154.5 317.5zM616 1749l142 -225h-78l-180 225h116z" glyph-name="Ugrave" horiz-adv-x="1400" unicode="Ù"/><glyph d="M176 418v1032h80v-1032q0 -166 131 -258t311.5 -92t312.5 92t132 258v1032h80v-1032q0 -203 -156 -317.5t-369 -114.5t-367.5 114.5t-154.5 317.5zM629 1526l129 246h112l-170 -246h-71z" glyph-name="Uacute" horiz-adv-x="1400" unicode="Ú"/><glyph d="M176 418v1032h80v-1032q0 -166 131 -258t311.5 -92t312.5 92t132 258v1032h80v-1032q0 -203 -156 -317.5t-369 -114.5t-367.5 114.5t-154.5 317.5zM455 1532l200 223h90l201 -223h-76l-172 176l-166 -176h-77z" glyph-name="Ucircumflex" horiz-adv-x="1400" unicode="Û"/><glyph d="M176 418v1032h80v-1032q0 -166 131 -258t311.5 -92t312.5 92t132 258v1032h80v-1032q0 -203 -156 -317.5t-369 -114.5t-367.5 114.5t-154.5 317.5zM827 1611.5q0 26.5 18.5 45t45.5 18.5t45 -18.5t18 -45t-18 -45t-45 -18.5t-45.5 18.5t-18.5 45zM459 1611.5 q0 26.5 18.5 45t45 18.5t45 -18.5t18.5 -45t-18.5 -45t-45 -18.5t-45 18.5t-18.5 45z" glyph-name="Udieresis" horiz-adv-x="1400" unicode="Ü"/><glyph d="M625 0h-80v573l-488 875h93l436 -803l434 803h94l-489 -875v-573zM543 1526l129 246h112l-170 -246h-71z" glyph-name="Yacute" horiz-adv-x="1171" unicode="Ý"/><glyph d="M444 406q196 0 303 50t151 120t44 162t-41 179.5t-167 131t-254 43.5t-218 -17v-1075h-82v1454h82v-299q127 16 213 16q266 0 407.5 -108.5t141.5 -314.5q0 -115 -49 -200t-172.5 -152.5t-351.5 -67.5h-101l10 78h84z" glyph-name="Thorn" horiz-adv-x="1097" unicode="Þ"/><glyph d="M1006 429q0 167 -106.5 251t-278.5 82h-213v74h213q137 0 228 78t91 220t-105.5 212.5t-251.5 70.5t-253 -75.5t-107 -221.5v-1122h-78v1122q0 170 131.5 270.5t306.5 100.5t306 -94t131 -264q0 -219 -197 -332q264 -92 264 -377q-4 -201 -159.5 -321.5t-358.5 -116.5 q-100 2 -225 55q0 16 1 43t1 41q139 -55 221 -57q174 -4 306.5 95t132.5 266z" glyph-name="germandbls" horiz-adv-x="1173" unicode="ß"/><glyph d="M502 1075q154 0 264.5 -82t110.5 -229v-723q-190 -63 -414 -59q-150 2 -250 97t-99 254t113.5 242.5t277.5 83.5t298 -59v164q0 121 -91 181.5t-233 60.5t-254 -105l-45 49q119 125 322 125zM786 82l17 6v442q-154 62 -296 62t-231.5 -62.5t-90.5 -197.5t79 -209t223 -77 t299 36zM457 1350l129 -205h-72l-164 205h107z" glyph-name="agrave" unicode="à"/><glyph d="M502 1075q154 0 264.5 -82t110.5 -229v-723q-190 -63 -414 -59q-150 2 -250 97t-99 254t113.5 242.5t277.5 83.5t298 -59v164q0 121 -91 181.5t-233 60.5t-254 -105l-45 49q119 125 322 125zM786 82l17 6v442q-154 62 -296 62t-231.5 -62.5t-90.5 -197.5t79 -209t223 -77 t299 36zM477 1130l125 226h107l-162 -226h-70z" glyph-name="aacute" unicode="á"/><glyph d="M502 1075q154 0 264.5 -82t110.5 -229v-723q-190 -63 -414 -59q-150 2 -250 97t-99 254t113.5 242.5t277.5 83.5t298 -59v164q0 121 -91 181.5t-233 60.5t-254 -105l-45 49q119 125 322 125zM786 82l17 6v442q-154 62 -296 62t-231.5 -62.5t-90.5 -197.5t79 -209t223 -77 t299 36zM291 1130l188 207h86l187 -207h-78l-154 152l-149 -152h-80z" glyph-name="acircumflex" unicode="â"/><glyph d="M502 1075q154 0 264.5 -82t110.5 -229v-723q-190 -63 -414 -59q-150 2 -250 97t-99 254t113.5 242.5t277.5 83.5t298 -59v164q0 121 -91 181.5t-233 60.5t-254 -105l-45 49q119 125 322 125zM786 82l17 6v442q-154 62 -296 62t-231.5 -62.5t-90.5 -197.5t79 -209t223 -77 t299 36zM451 1274q27 0 82 -25.5t93 -25.5t64 45l41 -17q-10 -41 -42.5 -67.5t-66.5 -26.5t-94 25.5t-96 25.5t-61 -49l-41 23q25 92 121 92z" glyph-name="atilde" unicode="ã"/><glyph d="M502 1075q154 0 264.5 -82t110.5 -229v-723q-190 -63 -414 -59q-150 2 -250 97t-99 254t113.5 242.5t277.5 83.5t298 -59v164q0 121 -91 181.5t-233 60.5t-254 -105l-45 49q119 125 322 125zM786 82l17 6v442q-154 62 -296 62t-231.5 -62.5t-90.5 -197.5t79 -209t223 -77 t299 36zM637 1205q0 26 15.5 43.5t38 17.5t38.5 -17.5t16 -43.5t-15.5 -44t-37.5 -18t-38.5 18t-16.5 44zM317 1205q0 26 16.5 43.5t39 17.5t39 -17.5t16.5 -43.5t-16.5 -44t-39 -18t-39 18t-16.5 44z" glyph-name="adieresis" unicode="ä"/><glyph d="M502 1075q154 0 264.5 -82t110.5 -229v-723q-190 -63 -414 -59q-150 2 -250 97t-99 254t113.5 242.5t277.5 83.5t298 -59v164q0 121 -91 181.5t-233 60.5t-254 -105l-45 49q119 125 322 125zM786 82l17 6v442q-154 62 -296 62t-231.5 -62.5t-90.5 -197.5t79 -209t223 -77 t299 36zM352 1284.5q0 65.5 52.5 113.5t124 48t121.5 -50t50 -113.5t-51 -112t-122 -48.5t-123 48.5t-52 114zM637 1284q0 43 -32 74t-79 31t-78.5 -32t-31.5 -75t32.5 -73.5t78.5 -30.5t78 31.5t32 74.5z" glyph-name="aring" unicode="å"/><glyph d="M498 1077q111 0 206 -45t140 -129q49 80 141 123t199 43q154 0 267.5 -85t113.5 -239v-266h-688v-168q-2 -121 88 -184.5t219 -63.5q201 0 278 134l68 -35q-45 -86 -139.5 -130t-206.5 -44q-221 0 -326 143q-70 -70 -181.5 -110.5t-213.5 -38.5q-150 2 -250 97t-99 255 t113.5 245t273.5 85t302 -64l2 180q-8 113 -97.5 169.5t-226.5 56.5t-252 -107l-49 51q121 127 318 127zM506 592q-141 0 -229.5 -62.5t-89.5 -197.5t78 -208t204 -75q84 -2 188.5 39t165.5 107q-20 57 -20 116l-2 219q-154 62 -295 62zM1491 547v203q0 119 -91 183t-218 64 t-217.5 -64.5t-87.5 -182.5v-203h614z" glyph-name="ae" horiz-adv-x="1683" unicode="æ"/><glyph d="M586 -182q0 78 -129 78q-45 0 -72 -11l-6 6q43 72 59 97q-141 12 -238.5 95t-97.5 226v441q0 154 114 238.5t267 84.5q104 0 194.5 -40t139.5 -115l-59 -39q-82 121 -275 120q-125 0 -216 -63.5t-91 -181.5v-445q0 -121 90 -185.5t202 -64.5t192.5 41t113.5 115l68 -33 q-41 -88 -135 -140t-207 -56l-29 -47q82 16 135 -23.5t49 -105.5t-64.5 -106t-137 -38t-134.5 37l11 45q56 -22 116 -22t100 22.5t40 69.5z" glyph-name="ccedilla" horiz-adv-x="901" unicode="ç"/><glyph d="M813 547v203q0 119 -91 183t-218 64t-217 -64.5t-88 -182.5v-203h614zM852 162q-91 -174 -368 -174q-134 0 -247.5 85t-113.5 238v434q0 154 113.5 239t268.5 85t268.5 -85t113.5 -239v-266h-688v-168q-2 -121 88 -184.5t219 -63.5q201 0 278 134zM428 1346l141 -226h-77 l-181 226h117z" glyph-name="egrave" horiz-adv-x="1005" unicode="è"/><glyph d="M813 547v203q0 119 -91 183t-218 64t-217 -64.5t-88 -182.5v-203h614zM852 162q-91 -174 -368 -174q-134 0 -247.5 85t-113.5 238v434q0 154 113.5 239t268.5 85t268.5 -85t113.5 -239v-266h-688v-168q-2 -121 88 -184.5t219 -63.5q201 0 278 134zM442 1122l129 246h113 l-170 -246h-72z" glyph-name="eacute" horiz-adv-x="1005" unicode="é"/><glyph d="M268 1104l197 207h88l197 -207h-80l-164 151l-154 -151h-84zM813 547v203q0 119 -91 183t-218 64t-217 -64.5t-88 -182.5v-203h614zM852 162q-91 -174 -368 -174q-134 0 -247.5 85t-113.5 238v434q0 154 113.5 239t268.5 85t268.5 -85t113.5 -239v-266h-688v-168 q-2 -121 88 -184.5t219 -63.5q201 0 278 134z" glyph-name="ecircumflex" horiz-adv-x="1005" unicode="ê"/><glyph d="M813 547v203q0 119 -91 183t-218 64t-217 -64.5t-88 -182.5v-203h614zM852 162q-91 -174 -368 -174q-134 0 -247.5 85t-113.5 238v434q0 154 113.5 239t268.5 85t268.5 -85t113.5 -239v-266h-688v-168q-2 -121 88 -184.5t219 -63.5q201 0 278 134zM618 1181.5 q0 24.5 17.5 43t40 18.5t40 -18.5t17.5 -43t-17.5 -42t-40 -17.5t-40 17.5t-17.5 42zM285 1181.5q0 24.5 17 43t40 18.5t40 -18.5t17 -43t-17 -42t-40 -17.5t-40 17.5t-17 42z" glyph-name="edieresis" horiz-adv-x="1005" unicode="ë"/><glyph d="M182 0v1063h78v-1063h-78zM141 1360l142 -225h-78l-180 225h116z" glyph-name="igrave" horiz-adv-x="452" unicode="ì"/><glyph d="M182 0v1061h78v-1061h-78zM154 1128l129 246h112l-170 -246h-71z" glyph-name="iacute" horiz-adv-x="452" unicode="í"/><glyph d="M25 1112l180 219h76l176 -219h-74l-147 160l-136 -160h-75zM205 0v1061h78v-1061h-78z" glyph-name="icircumflex" horiz-adv-x="491" unicode="î"/><glyph d="M317 1254q0 28 18.5 47.5t45.5 19.5t46 -19.5t19 -46t-18 -46t-46 -19.5t-46.5 18t-18.5 46zM51 1254q0 28 18.5 47.5t45.5 19.5t46 -19.5t19 -46t-20 -46t-46 -19.5t-44.5 18t-18.5 46zM205 2v1057h82v-1057h-82z" glyph-name="idieresis" horiz-adv-x="489" unicode="ï"/><glyph d="M915 1139v-1098l-98 -31q-101 -30 -269 -28t-277 87t-109 234v336q0 150 112.5 238t268.5 87t301 -73v248q0 170 -203 235l-51 -166l-58 21l50 157q-205 23 -316 -94l-47 45q66 72 168 101.5t215 13.5l45 133q12 -5 58 -18l-41 -127q113 -35 182 -111t69 -190zM233 641 v-338q0 -119 88.5 -184.5t210.5 -65.5q193 0 312 51v713q-158 70 -295 69t-226.5 -64.5t-89.5 -180.5z" glyph-name="eth" horiz-adv-x="1077" unicode="ð"/><glyph d="M238 0h-74v1006q223 78 381 76t268.5 -87.5t110.5 -234.5v-760h-74v760q0 119 -89 183.5t-235 64.5t-288 -62v-946zM477 1272q27 0 82 -25.5t95 -25.5t63 45l43 -17q-10 -43 -43 -70.5t-68 -27.5t-94 27.5t-96 27.5t-62 -53l-43 25q27 94 123 94z" glyph-name="ntilde" horiz-adv-x="1089" unicode="ñ"/><glyph d="M516 999q-125 0 -217 -63.5t-92 -185.5v-441q0 -123 92 -187.5t216 -64.5t216 64.5t92 187.5v441q0 123 -91 186t-216 63zM133 309v441q0 154 113.5 238.5t269.5 84.5t268.5 -85t112.5 -238v-441q0 -154 -112.5 -238.5t-268.5 -84.5t-269.5 84.5t-113.5 238.5zM432 1348 l141 -226h-77l-181 226h117z" glyph-name="ograve" horiz-adv-x="1030" unicode="ò"/><glyph d="M516 999q-125 0 -217 -63.5t-92 -185.5v-441q0 -123 92 -187.5t216 -64.5t216 64.5t92 187.5v441q0 123 -91 186t-216 63zM133 309v441q0 154 113.5 238.5t269.5 84.5t268.5 -85t112.5 -238v-441q0 -154 -112.5 -238.5t-268.5 -84.5t-269.5 84.5t-113.5 238.5zM451 1120 l129 246h112l-170 -246h-71z" glyph-name="oacute" horiz-adv-x="1030" unicode="ó"/><glyph d="M516 999q-125 0 -217 -63.5t-92 -185.5v-441q0 -123 92 -187.5t216 -64.5t216 64.5t92 187.5v441q0 123 -91 186t-216 63zM133 309v441q0 154 113.5 238.5t269.5 84.5t268.5 -85t112.5 -238v-441q0 -154 -112.5 -238.5t-268.5 -84.5t-269.5 84.5t-113.5 238.5zM270 1120 l201 217h90l201 -217h-82l-166 166l-158 -166h-86z" glyph-name="ocircumflex" horiz-adv-x="1030" unicode="ô"/><glyph d="M516 999q-125 0 -217 -63.5t-92 -185.5v-441q0 -123 92 -187.5t216 -64.5t216 64.5t92 187.5v441q0 123 -91 186t-216 63zM133 309v441q0 154 113.5 238.5t269.5 84.5t268.5 -85t112.5 -238v-441q0 -154 -112.5 -238.5t-268.5 -84.5t-269.5 84.5t-113.5 238.5zM613 1212 q40 0 63 50l43 -17q-10 -47 -43 -77.5t-68 -30.5t-94 29.5t-96 29.5t-64 -57l-43 26q27 104 123 105q27 0 83 -29t96 -29z" glyph-name="otilde" horiz-adv-x="1030" unicode="õ"/><glyph d="M516 999q-125 0 -217 -63.5t-92 -185.5v-441q0 -123 92 -187.5t216 -64.5t216 64.5t92 187.5v441q0 123 -91 186t-216 63zM133 309v441q0 154 113.5 238.5t269.5 84.5t268.5 -85t112.5 -238v-441q0 -154 -112.5 -238.5t-268.5 -84.5t-269.5 84.5t-113.5 238.5z M635 1200.5q0 26.5 18.5 45t45 18.5t45 -18.5t18.5 -45t-18.5 -45t-45 -18.5t-45 18.5t-18.5 45zM266 1200.5q0 26.5 18.5 45t45 18.5t45 -18.5t18.5 -45t-18.5 -45t-45 -18.5t-45 18.5t-18.5 45z" glyph-name="odieresis" horiz-adv-x="1030" unicode="ö"/><glyph d="M102 641v78h875v-78h-875zM473 356.5q0 32.5 21.5 53t54.5 21.5t54.5 -20.5t21.5 -54t-21.5 -54t-54.5 -21.5t-54.5 21.5t-21.5 54zM473 981q0 33 21.5 53.5t54.5 21.5t54.5 -20.5t21.5 -54.5t-21.5 -54.5t-54.5 -21.5t-54.5 21.5t-21.5 54.5z" glyph-name="divide" horiz-adv-x="1081" unicode="÷"/><glyph d="M897 752v-441q0 -154 -112.5 -238.5t-268.5 -86.5q-80 4 -172 32l-59 -141l-58 23l60 143q-154 98 -154 268v441q0 154 113.5 238.5t269.5 86.5q82 -4 168 -30l61 153l64 -20l-66 -158q154 -98 154 -270zM516 59q123 0 215 64.5t92 187.5v441q0 115 -108 198l-346 -866 q79 -25 147 -25zM516 1001q-125 0 -217 -63.5t-92 -185.5v-441q0 -117 104 -200l342 868q-80 22 -137 22z" glyph-name="oslash" horiz-adv-x="1019" unicode="ø"/><glyph d="M838 1061h73v-1002q-223 -77 -381 -75t-268 87t-110 234v756h73v-756q0 -119 88.5 -183.5t234.5 -64.5t290 62v942zM473 1346l141 -226h-77l-181 226h117z" glyph-name="ugrave" horiz-adv-x="1058" unicode="ù"/><glyph d="M838 1061h73v-1002q-223 -77 -381 -75t-268 87t-110 234v756h73v-756q0 -119 88.5 -183.5t234.5 -64.5t290 62v942zM465 1092l129 245h113l-170 -245h-72z" glyph-name="uacute" horiz-adv-x="1058" unicode="ú"/><glyph d="M838 1061h73v-1002q-223 -77 -381 -75t-268 87t-110 234v756h73v-756q0 -119 88.5 -183.5t234.5 -64.5t290 62v942zM291 1130l201 224h90l200 -224h-75l-172 177l-166 -177h-78z" glyph-name="ucircumflex" horiz-adv-x="1058" unicode="û"/><glyph d="M838 1061h73v-1002q-223 -77 -381 -75t-268 87t-110 234v756h73v-756q0 -119 88.5 -183.5t234.5 -64.5t290 62v942zM655 1239q0 27 18.5 45.5t45 18.5t45 -18.5t18.5 -45.5t-18.5 -45t-45 -18t-45 18t-18.5 45zM287 1239q0 27 18.5 45.5t45 18.5t45 -18.5t18.5 -45.5 t-18.5 -45t-45 -18t-45 18t-18.5 45z" glyph-name="udieresis" horiz-adv-x="1058" unicode="ü"/><glyph d="M836 1059h71v-1106q0 -154 -109.5 -233.5t-265.5 -79.5q-203 0 -321 112l45 45q92 -74 229.5 -88t244 49.5t106.5 192.5v110q-154 -77 -307 -77t-266 87t-113 236v752h73v-752q-2 -119 87 -182.5t216 -67.5q131 2 297 70l13 10v922zM469 1120l129 246h113l-170 -246h-72z " glyph-name="yacute" horiz-adv-x="1062" unicode="ý"/><glyph d="M236 -381h-74v1829h74v-416q162 41 316 40t265 -88t111 -239v-434q0 -152 -115 -239.5t-283 -84.5t-294 62v-430zM551 995q-190 0 -315 -43v-823q158 -68 298 -67t230 64.5t88 180.5v438q2 121 -86 185.5t-215 64.5z" glyph-name="thorn" horiz-adv-x="1056" unicode="þ"/><glyph d="M836 1059h71v-1106q0 -154 -109.5 -233.5t-265.5 -79.5q-203 0 -321 112l45 45q92 -74 229.5 -88t244 49.5t106.5 192.5v110q-154 -77 -307 -77t-266 87t-113 236v752h73v-752q-2 -119 87 -182.5t216 -67.5q131 2 297 70l13 10v922zM662 1257.5q0 26.5 18 45t45 18.5 t45 -18.5t18 -45t-18 -45t-45 -18.5t-45 18.5t-18 45zM293 1257.5q0 26.5 18.5 45t45 18.5t45 -18.5t18.5 -45t-18.5 -45t-45 -18.5t-45 18.5t-18.5 45z" glyph-name="ydieresis" horiz-adv-x="1062" unicode="ÿ"/><glyph d="M995 1450h826v-74h-746v-614h682v-76h-682v-610h746v-76h-826v68q-150 -80 -315 -76q-219 4 -379 117.5t-160 310.5v618q0 199 163 310.5t386 113.5q174 0 305 -88v76zM221 1038v-618q0 -164 140.5 -256t316.5 -92t317 75v1158q-154 80 -303 77q-195 0 -333 -88 t-138 -256z" glyph-name="OE" horiz-adv-x="1914" unicode="Œ"/><glyph d="M1585 479h-688v-168q-2 -121 88 -184.5t219 -63.5q201 0 279 134l67 -35q-45 -86 -139 -130t-206.5 -44t-206 47t-138.5 143q-84 -190 -344 -194q-156 2 -269.5 87t-113.5 238v441q0 154 113.5 238.5t269.5 86.5q113 -2 209 -52t135 -144q43 94 138.5 142t205.5 48 q154 0 267.5 -85t113.5 -239v-266zM512 999q-121 0 -213 -63.5t-92 -185.5v-441q0 -123 92 -187.5t213 -64.5t210 57.5t99 168.5v491q-10 111 -99 168t-210 57zM1511 547v203q0 119 -91 183t-218 64t-217 -64.5t-88 -182.5v-203h614z" glyph-name="oe" horiz-adv-x="1705" unicode="œ"/><glyph d="M182 1595.5q0 26.5 18.5 45t45 18.5t45 -18.5t18.5 -45t-18.5 -45t-45 -18.5t-45 18.5t-18.5 45zM614 1595.5q0 26.5 18.5 45t45.5 18.5t45 -18.5t18 -45t-18 -45t-45 -18.5t-45.5 18.5t-18.5 45zM502 0h-80v573l-488 877h93l436 -805l434 805h94l-489 -877v-573z" glyph-name="Ydieresis" horiz-adv-x="993" unicode="Ÿ"/><glyph d="M16 1227l201 223h90l201 -223h-76l-172 176l-166 -176h-78z" glyph-name="circumflex" horiz-adv-x="536" unicode="ˆ"/><glyph d="M178 1444q31 0 94.5 -26.5t107.5 -26.5t73 47l47 -17q-12 -43 -49 -71.5t-76 -28.5t-106.5 27.5t-109.5 27.5t-71 -53l-49 25q29 96 139 96z" glyph-name="tilde" horiz-adv-x="555" unicode="˜"/><glyph d="M59 575v76h910v-76h-910z" glyph-name="endash" horiz-adv-x="1024" unicode="–"/><glyph d="M45 575v76h1794v-76h-1794z" glyph-name="emdash" horiz-adv-x="1884" unicode="—"/><glyph d="M125 1061l143 389h74l-115 -389h-102z" glyph-name="quoteleft" horiz-adv-x="448" unicode="‘"/><glyph d="M346 1450l-147 -391h-76l117 391h106z" glyph-name="quoteright" horiz-adv-x="466" unicode="’"/><glyph d="M102 -262l117 344h105l-144 -344h-78z" glyph-name="quotesinglbase" horiz-adv-x="499" unicode="‚"/><glyph d="M338 1450l-105 -391h-106l133 391h78zM598 1450l-104 -391h-107l133 391h78z" glyph-name="quotedblleft" horiz-adv-x="704" unicode="“"/><glyph d="M428 1061l92 389h103l-121 -389h-74zM174 1061l92 389h103l-121 -389h-74z" glyph-name="quotedblright" horiz-adv-x="788" unicode="”"/><glyph d="M623 102l-144 -364h-78l115 364h107zM365 102l-144 -364h-78l115 364h107z" glyph-name="quotedblbase" horiz-adv-x="835" unicode="„"/><glyph d="M123 725q0 92 66.5 158.5t158.5 66.5t158.5 -66.5t66.5 -158.5t-66.5 -158.5t-158.5 -66.5t-158.5 66.5t-66.5 158.5z" glyph-name="bullet" horiz-adv-x="739" unicode="•"/><glyph d="M180 86q0 -41 29 -69.5t69.5 -28.5t69.5 28.5t29 69.5t-29 69.5t-69.5 28.5t-69.5 -28.5t-29 -69.5zM608 86q0 -41 29 -69.5t70 -28.5t69.5 28.5t28.5 69.5t-28.5 69.5t-69.5 28.5t-70 -28.5t-29 -69.5zM1034 86q0 -41 29 -69.5t70 -28.5t69.5 28.5t28.5 69.5t-28.5 69.5 t-69.5 28.5t-70 -28.5t-29 -69.5zM160 86q0 51 33.5 85t85 34t85 -34t33.5 -85t-33.5 -85t-85 -34t-85 34t-33.5 85zM201 86q0 33 22.5 55.5t55 22.5t55 -22.5t22.5 -55.5t-22.5 -55.5t-55 -22.5t-55 22.5t-22.5 55.5zM588 86q0 51 33.5 85t85 34t85 -34t33.5 -85t-33.5 -85 t-85 -34t-85 34t-33.5 85zM629 86q0 33 22.5 55.5t55 22.5t55 -22.5t22.5 -55.5t-22.5 -55.5t-55 -22.5t-55 22.5t-22.5 55.5zM1014 86q0 51 33.5 85t85 34t85 -34t33.5 -85t-33.5 -85t-85 -34t-85 34t-33.5 85zM1055 86q0 33 22.5 55.5t55 22.5t55 -22.5t22.5 -55.5 t-22.5 -55.5t-55 -22.5t-55 22.5t-22.5 55.5z" glyph-name="ellipsis" horiz-adv-x="1437" unicode="…"/><glyph d="M420 256l-62 -39l-262 387l262 389l64 -41l-240 -348q35 -53 238 -348z" glyph-name="guilsinglleft" horiz-adv-x="530" unicode="‹"/><glyph d="M135 952l62 39l262 -387l-262 -389l-64 41l240 348q-35 53 -238 348z" glyph-name="guilsinglright" horiz-adv-x="557" unicode="›"/><glyph d="M260 598v-176q0 -162 117 -252t278 -90q266 0 369 188l74 -37q-61 -115 -181 -174t-262 -59q-193 0 -333 111.5t-140 312.5v176h-131l12 66h119v120h-125q6 41 13 66h112v176q0 199 142.5 312.5t337.5 113.5q139 0 256.5 -59.5t179.5 -173.5l-74 -37q-100 188 -362 188 q-164 0 -283 -92t-119 -252v-176h551q-6 -41 -12 -66h-539v-120h551l-8 -66h-543z" glyph-name="Euro" horiz-adv-x="1179" unicode="€"/><glyph d="M782 692v758h92l273 -594l272 594h92v-758h-65l8 694l-274 -598h-66l-272 586l4 -682h-64zM643 1391h-266v-699h-66v699h-266v59h598v-59z" glyph-name="trademark" horiz-adv-x="1683" unicode="™"/><glyph d="M221 1139v-258h230v-74h-230v-807h-74v1139q0 152 88.5 234.5t229.5 88.5v-73q-113 -4 -178.5 -70t-65.5 -180zM651 1380.5q0 28.5 21.5 50t50.5 21.5t50.5 -21.5t21.5 -50t-21.5 -50t-50.5 -21.5t-50.5 21.5t-21.5 50zM690 -2v1065h74v-1065h-74z" glyph-name="uniFB01" horiz-adv-x="946" unicode="ﬁ"/><glyph d="M221 1139v-258h230v-74h-230v-807h-74v1139q0 152 88.5 234.5t229.5 88.5v-73q-113 -4 -178.5 -70t-65.5 -180zM969 68v-74q-283 10 -283 315v1141h74v-1141q0 -241 209 -241z" glyph-name="uniFB02" horiz-adv-x="1011" unicode="ﬂ"/></font>
</defs>
</svg>
